<svg width="28" height="26" viewBox="0 0 28 26" fill="none" xmlns="http://www.w3.org/2000/svg">
    <path
        d="M1.5 3C0.947715 3 0.5 3.44772 0.5 4C0.5 4.55228 0.947715 5 1.5 5V3ZM3.72222 4L4.7026 3.80288C4.60872 3.33593 4.19852 3 3.72222 3V4ZM3.18629 6.40762C3.29515 6.94907 3.82233 7.29975 4.36378 7.19089C4.90523 7.08202 5.25591 6.55484 5.14705 6.01339L3.18629 6.40762ZM5.94444 14.0525C5.39216 14.0525 4.94444 14.5002 4.94444 15.0525C4.94444 15.6048 5.39216 16.0525 5.94444 16.0525V14.0525ZM17.0556 15.0525V16.0525C17.4336 16.0525 17.7793 15.8394 17.949 15.5016L17.0556 15.0525ZM21.5 6.21051L22.3935 6.65961C22.5493 6.34962 22.5333 5.98101 22.3512 5.68568C22.1691 5.39035 21.847 5.21051 21.5 5.21051V6.21051ZM4.16667 5.21051C3.61438 5.21051 3.16667 5.65822 3.16667 6.21051C3.16667 6.76279 3.61438 7.21051 4.16667 7.21051V5.21051ZM4.96406 15.2496C5.07293 15.7911 5.60011 16.1418 6.14156 16.0329C6.68301 15.924 7.03369 15.3969 6.92482 14.8554L4.96406 15.2496ZM5.14705 6.01339C5.03818 5.47194 4.511 5.12126 3.96955 5.23012C3.4281 5.33899 3.07742 5.86617 3.18629 6.40762L5.14705 6.01339ZM6.64968 15.7615C7.04123 15.372 7.04291 14.7388 6.65342 14.3473C6.26393 13.9557 5.63076 13.9541 5.23921 14.3436L6.64968 15.7615ZM3.39667 17.5869L2.69143 16.8779L3.39667 17.5869ZM17.0556 20.4735C17.6078 20.4735 18.0556 20.0258 18.0556 19.4735C18.0556 18.9213 17.6078 18.4735 17.0556 18.4735V20.4735ZM17.0556 19.4735H16.0556C16.0556 19.7397 16.1616 19.9948 16.3503 20.1825L17.0556 19.4735ZM19.2778 21.684L18.5725 22.393C18.7599 22.5794 19.0135 22.684 19.2778 22.684V21.684ZM8.16667 21.684L7.30179 21.1821C7.21328 21.3345 7.16667 21.5077 7.16667 21.684H8.16667ZM8.16667 23.8945H7.16667C7.16667 24.0709 7.21328 24.244 7.30179 24.3965L8.16667 23.8945ZM1.5 5H3.72222V3H1.5V5ZM2.74184 4.19712L3.18629 6.40762L5.14705 6.01339L4.7026 3.80288L2.74184 4.19712ZM5.94444 16.0525H17.0556V14.0525H5.94444V16.0525ZM17.949 15.5016L22.3935 6.65961L20.6065 5.7614L16.1621 14.6034L17.949 15.5016ZM21.5 5.21051H4.16667V7.21051H21.5V5.21051ZM6.92482 14.8554L5.14705 6.01339L3.18629 6.40762L4.96406 15.2496L6.92482 14.8554ZM5.23921 14.3436L2.69143 16.8779L4.1019 18.2958L6.64968 15.7615L5.23921 14.3436ZM2.69143 16.8779C1.35112 18.2111 2.31103 20.4735 4.18222 20.4735V18.4735C4.14208 18.4735 4.12553 18.4635 4.11734 18.4578C4.10473 18.4489 4.08938 18.4322 4.07888 18.407C4.06837 18.3817 4.06775 18.3602 4.07003 18.3471C4.07136 18.3395 4.07483 18.3228 4.1019 18.2958L2.69143 16.8779ZM4.18222 20.4735H17.0556V18.4735H4.18222V20.4735ZM18.0556 19.4735C18.0556 18.81 18.5978 18.263 19.2778 18.263V16.263C17.5032 16.263 16.0556 17.6954 16.0556 19.4735H18.0556ZM19.2778 18.263C19.9578 18.263 20.5 18.81 20.5 19.4735H22.5C22.5 17.6954 21.0524 16.263 19.2778 16.263V18.263ZM20.5 19.4735C20.5 20.1371 19.9578 20.684 19.2778 20.684V22.684C21.0524 22.684 22.5 21.2516 22.5 19.4735H20.5ZM19.983 20.9751L17.7608 18.7646L16.3503 20.1825L18.5725 22.393L19.983 20.9751ZM9.03154 22.186C9.30675 21.7119 9.87106 21.4771 10.4088 21.6204L10.9239 19.6878C9.51854 19.3133 8.03237 19.9233 7.30179 21.1821L9.03154 22.186ZM10.4088 21.6204C10.9456 21.7635 11.3134 22.2451 11.3134 22.7893H13.3134C13.3134 21.3325 12.3301 20.0627 10.9239 19.6878L10.4088 21.6204ZM11.3134 22.7893C11.3134 23.3335 10.9456 23.8151 10.4088 23.9582L10.9239 25.8907C12.3301 25.5159 13.3134 24.2461 13.3134 22.7893H11.3134ZM10.4088 23.9582C9.87106 24.1015 9.30675 23.8667 9.03154 23.3926L7.30179 24.3965C8.03237 25.6553 9.51854 26.2653 10.9239 25.8907L10.4088 23.9582ZM9.16667 23.8945V21.684H7.16667V23.8945H9.16667Z"
        fill="white" />
    <circle cx="21.5" cy="6" r="6" fill="white" />
    <path
        d="M24.0263 5.52632H21.9737V3.47368C21.9737 3.21474 21.7653 3 21.5 3C21.2411 3 21.0263 3.20842 21.0263 3.47368V5.52632H18.9737C18.7147 5.52632 18.5 5.73474 18.5 6C18.5 6.13263 18.5505 6.24632 18.6389 6.33474C18.7274 6.42316 18.8411 6.47368 18.9737 6.47368H21.0263V8.52632C21.0263 8.65895 21.0768 8.77263 21.1653 8.86105C21.2537 8.94947 21.3674 9 21.5 9C21.7589 9 21.9737 8.79158 21.9737 8.52632V6.47368H24.0263C24.2853 6.47368 24.5 6.26526 24.5 6C24.5 5.74105 24.2916 5.52632 24.0263 5.52632Z"
        fill="#ACD9B2" stroke="#ACD9B2" />
</svg>