<svg width="23" height="23" viewBox="0 0 23 23" fill="none" xmlns="http://www.w3.org/2000/svg">
<path d="M1.5 0C0.947715 0 0.5 0.447715 0.5 1C0.5 1.55228 0.947715 2 1.5 2V0ZM3.72222 1L4.7026 0.802885C4.60872 0.335932 4.19852 0 3.72222 0V1ZM3.18629 3.40762C3.29515 3.94907 3.82233 4.29975 4.36378 4.19089C4.90523 4.08202 5.25591 3.55484 5.14705 3.01339L3.18629 3.40762ZM5.94444 11.0525C5.39216 11.0525 4.94444 11.5002 4.94444 12.0525C4.94444 12.6048 5.39216 13.0525 5.94444 13.0525V11.0525ZM17.0556 12.0525V13.0525C17.4336 13.0525 17.7793 12.8394 17.949 12.5016L17.0556 12.0525ZM21.5 3.21051L22.3935 3.65961C22.5493 3.34962 22.5333 2.98101 22.3512 2.68568C22.1691 2.39035 21.847 2.21051 21.5 2.21051V3.21051ZM4.16667 2.21051C3.61438 2.21051 3.16667 2.65822 3.16667 3.21051C3.16667 3.76279 3.61438 4.21051 4.16667 4.21051V2.21051ZM4.96406 12.2496C5.07293 12.7911 5.60011 13.1418 6.14156 13.0329C6.68301 12.924 7.03369 12.3969 6.92482 11.8554L4.96406 12.2496ZM5.14705 3.01339C5.03818 2.47194 4.511 2.12126 3.96955 2.23012C3.4281 2.33899 3.07742 2.86617 3.18629 3.40762L5.14705 3.01339ZM6.64968 12.7615C7.04123 12.372 7.04291 11.7388 6.65342 11.3473C6.26393 10.9557 5.63076 10.9541 5.23921 11.3436L6.64968 12.7615ZM3.39667 14.5869L2.69143 13.8779L2.69143 13.8779L3.39667 14.5869ZM17.0556 17.4735C17.6078 17.4735 18.0556 17.0258 18.0556 16.4735C18.0556 15.9213 17.6078 15.4735 17.0556 15.4735V17.4735ZM17.0556 16.4735H16.0556C16.0556 16.7397 16.1616 16.9948 16.3503 17.1825L17.0556 16.4735ZM19.2778 18.684L18.5725 19.393C18.7599 19.5794 19.0135 19.684 19.2778 19.684V18.684ZM8.16667 18.684L7.30179 18.1821C7.21328 18.3345 7.16667 18.5077 7.16667 18.684H8.16667ZM8.16667 20.8945H7.16667C7.16667 21.0709 7.21328 21.244 7.30179 21.3965L8.16667 20.8945ZM1.5 2H3.72222V0H1.5V2ZM2.74184 1.19712L3.18629 3.40762L5.14705 3.01339L4.7026 0.802885L2.74184 1.19712ZM5.94444 13.0525H17.0556V11.0525H5.94444V13.0525ZM17.949 12.5016L22.3935 3.65961L20.6065 2.7614L16.1621 11.6034L17.949 12.5016ZM21.5 2.21051H4.16667V4.21051H21.5V2.21051ZM6.92482 11.8554L5.14705 3.01339L3.18629 3.40762L4.96406 12.2496L6.92482 11.8554ZM5.23921 11.3436L2.69143 13.8779L4.1019 15.2958L6.64968 12.7615L5.23921 11.3436ZM2.69143 13.8779C1.35112 15.2111 2.31103 17.4735 4.18222 17.4735V15.4735C4.14208 15.4735 4.12553 15.4635 4.11734 15.4578C4.10473 15.4489 4.08938 15.4322 4.07888 15.407C4.06837 15.3817 4.06775 15.3602 4.07003 15.3471C4.07136 15.3395 4.07483 15.3228 4.1019 15.2958L2.69143 13.8779ZM4.18222 17.4735H17.0556V15.4735H4.18222V17.4735ZM18.0556 16.4735C18.0556 15.81 18.5978 15.263 19.2778 15.263V13.263C17.5032 13.263 16.0556 14.6954 16.0556 16.4735H18.0556ZM19.2778 15.263C19.9578 15.263 20.5 15.81 20.5 16.4735H22.5C22.5 14.6954 21.0524 13.263 19.2778 13.263V15.263ZM20.5 16.4735C20.5 17.1371 19.9578 17.684 19.2778 17.684V19.684C21.0524 19.684 22.5 18.2516 22.5 16.4735H20.5ZM19.983 17.9751L17.7608 15.7646L16.3503 17.1825L18.5725 19.393L19.983 17.9751ZM9.03154 19.186C9.30675 18.7119 9.87106 18.4771 10.4088 18.6204L10.9239 16.6878C9.51854 16.3133 8.03237 16.9233 7.30179 18.1821L9.03154 19.186ZM10.4088 18.6204C10.9456 18.7635 11.3134 19.2451 11.3134 19.7893H13.3134C13.3134 18.3325 12.3301 17.0627 10.9239 16.6878L10.4088 18.6204ZM11.3134 19.7893C11.3134 20.3335 10.9456 20.8151 10.4088 20.9582L10.9239 22.8907C12.3301 22.5159 13.3134 21.2461 13.3134 19.7893H11.3134ZM10.4088 20.9582C9.87106 21.1015 9.30675 20.8667 9.03154 20.3926L7.30179 21.3965C8.03237 22.6553 9.51854 23.2653 10.9239 22.8907L10.4088 20.9582ZM9.16667 20.8945V18.684H7.16667V20.8945H9.16667Z" fill="black"/>
</svg>
